<svg xmlns="http://www.w3.org/2000/svg" xmlns:xlink="http://www.w3.org/1999/xlink" width="500" zoomAndPan="magnify" viewBox="0 0 375 374.999991" height="500" preserveAspectRatio="xMidYMid meet" version="1.0"><defs><g/></defs><g fill="#242221" fill-opacity="1"><g transform="translate(75.339213, 155.551413)"><g><path d="M 5.578125 -19.015625 C 5.578125 -18.078125 5.8125 -17.25 6.28125 -16.53125 C 6.757812 -15.8125 7.332031 -15.203125 8 -14.703125 C 8.664062 -14.203125 9.609375 -13.59375 10.828125 -12.875 C 12.097656 -12.101562 13.09375 -11.445312 13.8125 -10.90625 C 14.53125 -10.363281 15.140625 -9.679688 15.640625 -8.859375 C 16.148438 -8.035156 16.40625 -7.066406 16.40625 -5.953125 C 16.40625 -4.734375 16.101562 -3.640625 15.5 -2.671875 C 14.894531 -1.710938 14.007812 -0.953125 12.84375 -0.390625 C 11.675781 0.171875 10.296875 0.453125 8.703125 0.453125 C 6.691406 0.453125 4.90625 0.00390625 3.34375 -0.890625 C 3.21875 -0.960938 3.128906 -1.046875 3.078125 -1.140625 C 3.035156 -1.242188 3.003906 -1.394531 2.984375 -1.59375 L 2.5625 -6.8125 C 2.539062 -6.90625 2.597656 -6.960938 2.734375 -6.984375 C 2.867188 -7.015625 2.953125 -6.984375 2.984375 -6.890625 C 3.472656 -5.046875 4.25 -3.472656 5.3125 -2.171875 C 6.382812 -0.867188 7.800781 -0.21875 9.5625 -0.21875 C 10.78125 -0.21875 11.796875 -0.539062 12.609375 -1.1875 C 13.429688 -1.832031 13.84375 -2.890625 13.84375 -4.359375 C 13.84375 -5.472656 13.59375 -6.429688 13.09375 -7.234375 C 12.601562 -8.046875 12.003906 -8.726562 11.296875 -9.28125 C 10.585938 -9.84375 9.625 -10.484375 8.40625 -11.203125 C 7.195312 -11.972656 6.253906 -12.609375 5.578125 -13.109375 C 4.910156 -13.617188 4.335938 -14.265625 3.859375 -15.046875 C 3.390625 -15.835938 3.15625 -16.765625 3.15625 -17.828125 C 3.15625 -19.085938 3.488281 -20.160156 4.15625 -21.046875 C 4.832031 -21.929688 5.71875 -22.585938 6.8125 -23.015625 C 7.90625 -23.453125 9.054688 -23.671875 10.265625 -23.671875 C 11.804688 -23.671875 13.285156 -23.382812 14.703125 -22.8125 C 15.078125 -22.632812 15.265625 -22.410156 15.265625 -22.140625 L 15.484375 -17.671875 C 15.484375 -17.578125 15.414062 -17.515625 15.28125 -17.484375 C 15.144531 -17.460938 15.0625 -17.503906 15.03125 -17.609375 C 14.789062 -18.921875 14.234375 -20.160156 13.359375 -21.328125 C 12.492188 -22.492188 11.242188 -23.078125 9.609375 -23.078125 C 8.285156 -23.078125 7.28125 -22.691406 6.59375 -21.921875 C 5.914062 -21.148438 5.578125 -20.179688 5.578125 -19.015625 Z M 5.578125 -19.015625 "/></g></g></g><g fill="#242221" fill-opacity="1"><g transform="translate(92.34725, 155.551413)"><g><path d="M 26.125 -0.453125 C 26.226562 -0.453125 26.28125 -0.375 26.28125 -0.21875 C 26.28125 -0.0703125 26.226562 0 26.125 0 C 25.65625 0 24.925781 -0.0234375 23.9375 -0.078125 C 22.9375 -0.128906 22.203125 -0.15625 21.734375 -0.15625 C 21.160156 -0.15625 20.453125 -0.128906 19.609375 -0.078125 C 18.816406 -0.0234375 18.195312 0 17.75 0 C 17.65625 0 17.609375 -0.0703125 17.609375 -0.21875 C 17.609375 -0.375 17.65625 -0.453125 17.75 -0.453125 C 18.644531 -0.453125 19.285156 -0.53125 19.671875 -0.6875 C 20.054688 -0.851562 20.25 -1.144531 20.25 -1.5625 C 20.25 -1.9375 20.070312 -2.492188 19.71875 -3.234375 L 16.53125 -9.9375 L 7.625 -9.9375 L 5.4375 -4.84375 C 5.113281 -4.09375 4.953125 -3.410156 4.953125 -2.796875 C 4.953125 -1.234375 6.15625 -0.453125 8.5625 -0.453125 C 8.6875 -0.453125 8.75 -0.375 8.75 -0.21875 C 8.75 -0.0703125 8.6875 0 8.5625 0 C 8.113281 0 7.46875 -0.0234375 6.625 -0.078125 C 5.675781 -0.128906 4.859375 -0.15625 4.171875 -0.15625 C 3.546875 -0.15625 2.785156 -0.128906 1.890625 -0.078125 C 1.148438 -0.0234375 0.519531 0 0 0 C -0.125 0 -0.1875 -0.0703125 -0.1875 -0.21875 C -0.1875 -0.375 -0.125 -0.453125 0 -0.453125 C 0.695312 -0.453125 1.285156 -0.582031 1.765625 -0.84375 C 2.253906 -1.101562 2.71875 -1.566406 3.15625 -2.234375 C 3.601562 -2.898438 4.101562 -3.878906 4.65625 -5.171875 L 12.5 -23.5625 C 12.550781 -23.632812 12.648438 -23.671875 12.796875 -23.671875 C 12.953125 -23.671875 13.039062 -23.632812 13.0625 -23.5625 L 21.921875 -5.09375 C 22.765625 -3.28125 23.484375 -2.050781 24.078125 -1.40625 C 24.671875 -0.769531 25.351562 -0.453125 26.125 -0.453125 Z M 7.96875 -10.71875 L 16.15625 -10.71875 L 11.828125 -19.71875 Z M 7.96875 -10.71875 "/></g></g></g><g fill="#242221" fill-opacity="1"><g transform="translate(117.133766, 155.551413)"><g><path d="M 26.953125 -0.453125 C 27.023438 -0.453125 27.0625 -0.375 27.0625 -0.21875 C 27.0625 -0.0703125 27.023438 0 26.953125 0 C 26.148438 0 25.523438 -0.0078125 25.078125 -0.03125 L 22.4375 -0.078125 L 19.578125 -0.03125 C 19.148438 -0.0078125 18.566406 0 17.828125 0 C 17.753906 0 17.71875 -0.0703125 17.71875 -0.21875 C 17.71875 -0.375 17.753906 -0.453125 17.828125 -0.453125 C 18.796875 -0.453125 19.492188 -0.507812 19.921875 -0.625 C 20.359375 -0.75 20.65625 -0.988281 20.8125 -1.34375 C 20.976562 -1.707031 21.0625 -2.265625 21.0625 -3.015625 L 21.0625 -11.6875 L 7.1875 -11.6875 L 7.1875 -3.015625 C 7.1875 -2.265625 7.265625 -1.707031 7.421875 -1.34375 C 7.585938 -0.988281 7.882812 -0.75 8.3125 -0.625 C 8.75 -0.507812 9.453125 -0.453125 10.421875 -0.453125 C 10.472656 -0.453125 10.5 -0.375 10.5 -0.21875 C 10.5 -0.0703125 10.472656 0 10.421875 0 C 9.628906 0 9.007812 -0.0078125 8.5625 -0.03125 L 5.765625 -0.078125 L 3.15625 -0.03125 C 2.71875 -0.0078125 2.085938 0 1.265625 0 C 1.210938 0 1.1875 -0.0703125 1.1875 -0.21875 C 1.1875 -0.375 1.210938 -0.453125 1.265625 -0.453125 C 2.210938 -0.453125 2.898438 -0.507812 3.328125 -0.625 C 3.765625 -0.75 4.0625 -0.988281 4.21875 -1.34375 C 4.382812 -1.707031 4.46875 -2.265625 4.46875 -3.015625 L 4.46875 -20.25 C 4.46875 -20.988281 4.382812 -21.53125 4.21875 -21.875 C 4.0625 -22.226562 3.765625 -22.472656 3.328125 -22.609375 C 2.898438 -22.742188 2.222656 -22.8125 1.296875 -22.8125 C 1.253906 -22.8125 1.234375 -22.882812 1.234375 -23.03125 C 1.234375 -23.1875 1.253906 -23.265625 1.296875 -23.265625 L 3.203125 -23.21875 C 4.242188 -23.175781 5.097656 -23.15625 5.765625 -23.15625 C 6.515625 -23.15625 7.457031 -23.175781 8.59375 -23.21875 L 10.421875 -23.265625 C 10.472656 -23.265625 10.5 -23.1875 10.5 -23.03125 C 10.5 -22.882812 10.472656 -22.8125 10.421875 -22.8125 C 9.472656 -22.8125 8.773438 -22.738281 8.328125 -22.59375 C 7.890625 -22.445312 7.585938 -22.191406 7.421875 -21.828125 C 7.265625 -21.472656 7.1875 -20.921875 7.1875 -20.171875 L 7.1875 -12.5 L 21.0625 -12.5 L 21.0625 -20.171875 C 21.0625 -20.921875 20.976562 -21.472656 20.8125 -21.828125 C 20.65625 -22.191406 20.351562 -22.445312 19.90625 -22.59375 C 19.457031 -22.738281 18.765625 -22.8125 17.828125 -22.8125 C 17.753906 -22.8125 17.71875 -22.882812 17.71875 -23.03125 C 17.71875 -23.1875 17.753906 -23.265625 17.828125 -23.265625 L 19.578125 -23.21875 C 20.671875 -23.175781 21.625 -23.15625 22.4375 -23.15625 C 23.113281 -23.15625 23.992188 -23.175781 25.078125 -23.21875 L 26.953125 -23.265625 C 27.023438 -23.265625 27.0625 -23.1875 27.0625 -23.03125 C 27.0625 -22.882812 27.023438 -22.8125 26.953125 -22.8125 C 26.003906 -22.8125 25.3125 -22.742188 24.875 -22.609375 C 24.445312 -22.472656 24.148438 -22.226562 23.984375 -21.875 C 23.828125 -21.53125 23.75 -20.988281 23.75 -20.25 L 23.75 -3.015625 C 23.75 -2.265625 23.828125 -1.707031 23.984375 -1.34375 C 24.148438 -0.988281 24.445312 -0.75 24.875 -0.625 C 25.3125 -0.507812 26.003906 -0.453125 26.953125 -0.453125 Z M 26.953125 -0.453125 "/></g></g></g><g fill="#242221" fill-opacity="1"><g transform="translate(144.004465, 155.551413)"><g><path d="M 21.296875 -19.0625 C 21.296875 -20.300781 21.015625 -21.234375 20.453125 -21.859375 C 19.890625 -22.492188 19.078125 -22.8125 18.015625 -22.8125 C 17.941406 -22.8125 17.90625 -22.882812 17.90625 -23.03125 C 17.90625 -23.1875 17.941406 -23.265625 18.015625 -23.265625 L 19.65625 -23.21875 C 20.5 -23.175781 21.203125 -23.15625 21.765625 -23.15625 C 22.242188 -23.15625 22.878906 -23.175781 23.671875 -23.21875 L 25.234375 -23.265625 C 25.285156 -23.265625 25.3125 -23.1875 25.3125 -23.03125 C 25.3125 -22.882812 25.285156 -22.8125 25.234375 -22.8125 C 24.242188 -22.8125 23.5 -22.492188 23 -21.859375 C 22.5 -21.234375 22.25 -20.300781 22.25 -19.0625 L 22.25 -8.515625 C 22.25 -5.710938 21.441406 -3.507812 19.828125 -1.90625 C 18.222656 -0.3125 16.066406 0.484375 13.359375 0.484375 C 11.523438 0.484375 9.914062 0.125 8.53125 -0.59375 C 7.15625 -1.3125 6.082031 -2.332031 5.3125 -3.65625 C 4.550781 -4.988281 4.171875 -6.550781 4.171875 -8.34375 L 4.171875 -20.25 C 4.171875 -20.988281 4.09375 -21.53125 3.9375 -21.875 C 3.789062 -22.226562 3.503906 -22.472656 3.078125 -22.609375 C 2.660156 -22.742188 1.992188 -22.8125 1.078125 -22.8125 C 1.023438 -22.8125 1 -22.882812 1 -23.03125 C 1 -23.1875 1.023438 -23.265625 1.078125 -23.265625 L 2.9375 -23.21875 C 4.03125 -23.175781 4.890625 -23.15625 5.515625 -23.15625 C 6.203125 -23.15625 7.09375 -23.175781 8.1875 -23.21875 L 9.9375 -23.265625 C 10.007812 -23.265625 10.046875 -23.1875 10.046875 -23.03125 C 10.046875 -22.882812 10.007812 -22.8125 9.9375 -22.8125 C 9.039062 -22.8125 8.378906 -22.738281 7.953125 -22.59375 C 7.535156 -22.445312 7.253906 -22.191406 7.109375 -21.828125 C 6.960938 -21.472656 6.890625 -20.921875 6.890625 -20.171875 L 6.890625 -9.640625 C 6.890625 -6.710938 7.53125 -4.484375 8.8125 -2.953125 C 10.101562 -1.429688 11.929688 -0.671875 14.296875 -0.671875 C 16.503906 -0.671875 18.222656 -1.359375 19.453125 -2.734375 C 20.679688 -4.109375 21.296875 -6.023438 21.296875 -8.484375 Z M 21.296875 -19.0625 "/></g></g></g><g fill="#242221" fill-opacity="1"><g transform="translate(168.604897, 155.551413)"><g><path d="M 30.375 -0.453125 C 30.445312 -0.453125 30.484375 -0.375 30.484375 -0.21875 C 30.484375 -0.0703125 30.445312 0 30.375 0 C 29.570312 0 28.9375 -0.0078125 28.46875 -0.03125 L 25.90625 -0.078125 L 23.40625 -0.03125 C 23.007812 -0.0078125 22.453125 0 21.734375 0 C 21.679688 0 21.65625 -0.0703125 21.65625 -0.21875 C 21.65625 -0.375 21.679688 -0.453125 21.734375 -0.453125 C 22.578125 -0.453125 23.195312 -0.519531 23.59375 -0.65625 C 23.988281 -0.789062 24.253906 -1.03125 24.390625 -1.375 C 24.535156 -1.71875 24.582031 -2.265625 24.53125 -3.015625 L 23.8125 -19.578125 L 15.484375 -0.265625 C 15.429688 -0.160156 15.332031 -0.109375 15.1875 -0.109375 C 15.0625 -0.109375 14.945312 -0.160156 14.84375 -0.265625 L 5.65625 -19.5 L 5.359375 -4.171875 C 5.335938 -2.859375 5.566406 -1.910156 6.046875 -1.328125 C 6.535156 -0.742188 7.347656 -0.453125 8.484375 -0.453125 C 8.535156 -0.453125 8.5625 -0.375 8.5625 -0.21875 C 8.5625 -0.0703125 8.535156 0 8.484375 0 C 7.785156 0 7.253906 -0.0078125 6.890625 -0.03125 L 4.875 -0.078125 L 2.859375 -0.03125 C 2.515625 -0.0078125 2.019531 0 1.375 0 C 1.300781 0 1.265625 -0.0703125 1.265625 -0.21875 C 1.265625 -0.375 1.300781 -0.453125 1.375 -0.453125 C 2.394531 -0.453125 3.148438 -0.75 3.640625 -1.34375 C 4.140625 -1.9375 4.398438 -2.878906 4.421875 -4.171875 L 4.765625 -21.109375 C 4.015625 -22.242188 2.972656 -22.8125 1.640625 -22.8125 C 1.566406 -22.8125 1.53125 -22.882812 1.53125 -23.03125 C 1.53125 -23.1875 1.566406 -23.265625 1.640625 -23.265625 L 3.09375 -23.21875 C 3.363281 -23.195312 3.722656 -23.1875 4.171875 -23.1875 C 4.660156 -23.1875 5.070312 -23.195312 5.40625 -23.21875 C 5.75 -23.25 6.019531 -23.265625 6.21875 -23.265625 C 6.539062 -23.265625 6.800781 -23.148438 7 -22.921875 C 7.195312 -22.703125 7.503906 -22.171875 7.921875 -21.328125 L 16.234375 -4.203125 L 24.125 -22.328125 C 24.394531 -22.953125 24.765625 -23.265625 25.234375 -23.265625 C 25.359375 -23.265625 25.546875 -23.25 25.796875 -23.21875 C 26.046875 -23.195312 26.367188 -23.1875 26.765625 -23.1875 L 28.625 -23.21875 C 28.894531 -23.25 29.316406 -23.265625 29.890625 -23.265625 C 29.941406 -23.265625 29.96875 -23.1875 29.96875 -23.03125 C 29.96875 -22.882812 29.941406 -22.8125 29.890625 -22.8125 C 28.648438 -22.8125 27.757812 -22.617188 27.21875 -22.234375 C 26.6875 -21.847656 26.4375 -21.160156 26.46875 -20.171875 L 27.25 -3.015625 C 27.289062 -2.242188 27.382812 -1.679688 27.53125 -1.328125 C 27.6875 -0.984375 27.96875 -0.75 28.375 -0.625 C 28.789062 -0.507812 29.457031 -0.453125 30.375 -0.453125 Z M 30.375 -0.453125 "/></g></g></g><g fill="#242221" fill-opacity="1"><g transform="translate(198.415796, 155.551413)"><g><path d="M 17.828125 -5.578125 C 17.828125 -5.648438 17.898438 -5.679688 18.046875 -5.671875 C 18.203125 -5.660156 18.28125 -5.617188 18.28125 -5.546875 C 18.050781 -3.929688 17.9375 -2.269531 17.9375 -0.5625 C 17.9375 -0.363281 17.890625 -0.21875 17.796875 -0.125 C 17.710938 -0.0390625 17.5625 0 17.34375 0 L 1.59375 0 C 1.550781 0 1.53125 -0.0703125 1.53125 -0.21875 C 1.53125 -0.375 1.550781 -0.453125 1.59375 -0.453125 C 2.519531 -0.453125 3.191406 -0.507812 3.609375 -0.625 C 4.035156 -0.75 4.320312 -0.988281 4.46875 -1.34375 C 4.613281 -1.707031 4.6875 -2.265625 4.6875 -3.015625 L 4.6875 -20.25 C 4.6875 -20.988281 4.613281 -21.53125 4.46875 -21.875 C 4.320312 -22.226562 4.035156 -22.472656 3.609375 -22.609375 C 3.191406 -22.742188 2.519531 -22.8125 1.59375 -22.8125 C 1.550781 -22.8125 1.53125 -22.882812 1.53125 -23.03125 C 1.53125 -23.1875 1.550781 -23.265625 1.59375 -23.265625 L 16.71875 -23.265625 C 16.9375 -23.265625 17.046875 -23.148438 17.046875 -22.921875 L 17.125 -18.28125 C 17.125 -18.195312 17.054688 -18.15625 16.921875 -18.15625 C 16.785156 -18.15625 16.71875 -18.195312 16.71875 -18.28125 C 16.5625 -19.613281 16.097656 -20.640625 15.328125 -21.359375 C 14.566406 -22.078125 13.5625 -22.4375 12.3125 -22.4375 L 10.265625 -22.4375 C 9.097656 -22.4375 8.328125 -22.273438 7.953125 -21.953125 C 7.585938 -21.628906 7.40625 -21.007812 7.40625 -20.09375 L 7.40625 -12.5 L 11.6875 -12.5 C 12.925781 -12.5 13.820312 -12.707031 14.375 -13.125 C 14.9375 -13.550781 15.21875 -14.238281 15.21875 -15.1875 C 15.21875 -15.238281 15.289062 -15.265625 15.4375 -15.265625 C 15.59375 -15.265625 15.671875 -15.238281 15.671875 -15.1875 L 15.625 -12.09375 C 15.625 -11.375 15.640625 -10.828125 15.671875 -10.453125 L 15.703125 -8.59375 C 15.703125 -8.539062 15.628906 -8.515625 15.484375 -8.515625 C 15.335938 -8.515625 15.265625 -8.539062 15.265625 -8.59375 C 15.265625 -9.6875 14.976562 -10.472656 14.40625 -10.953125 C 13.832031 -11.441406 12.898438 -11.6875 11.609375 -11.6875 L 7.40625 -11.6875 L 7.40625 -3.15625 C 7.40625 -2.519531 7.476562 -2.039062 7.625 -1.71875 C 7.78125 -1.394531 8.039062 -1.160156 8.40625 -1.015625 C 8.78125 -0.878906 9.351562 -0.8125 10.125 -0.8125 L 12.765625 -0.8125 C 14.078125 -0.8125 15.164062 -1.226562 16.03125 -2.0625 C 16.90625 -2.894531 17.503906 -4.066406 17.828125 -5.578125 Z M 17.828125 -5.578125 "/></g></g></g><g fill="#242221" fill-opacity="1"><g transform="translate(217.098634, 155.551413)"><g><path d="M 25.5625 -0.453125 C 25.644531 -0.453125 25.6875 -0.375 25.6875 -0.21875 C 25.6875 -0.0703125 25.644531 0 25.5625 0 L 20.46875 0 C 19.875 0 18.75 -1.007812 17.09375 -3.03125 C 15.445312 -5.050781 13.429688 -7.875 11.046875 -11.5 C 10.378906 -11.375 9.757812 -11.3125 9.1875 -11.3125 C 9.0625 -11.3125 8.476562 -11.347656 7.4375 -11.421875 L 7.4375 -3.015625 C 7.4375 -2.242188 7.507812 -1.679688 7.65625 -1.328125 C 7.8125 -0.984375 8.097656 -0.75 8.515625 -0.625 C 8.941406 -0.507812 9.613281 -0.453125 10.53125 -0.453125 C 10.601562 -0.453125 10.640625 -0.375 10.640625 -0.21875 C 10.640625 -0.0703125 10.601562 0 10.53125 0 C 9.738281 0 9.128906 -0.0078125 8.703125 -0.03125 L 6.0625 -0.078125 L 3.5 -0.03125 C 3.03125 -0.0078125 2.394531 0 1.59375 0 C 1.550781 0 1.53125 -0.0703125 1.53125 -0.21875 C 1.53125 -0.375 1.550781 -0.453125 1.59375 -0.453125 C 2.519531 -0.453125 3.191406 -0.507812 3.609375 -0.625 C 4.035156 -0.75 4.328125 -0.988281 4.484375 -1.34375 C 4.648438 -1.707031 4.734375 -2.265625 4.734375 -3.015625 L 4.734375 -20.25 C 4.734375 -20.988281 4.65625 -21.53125 4.5 -21.875 C 4.351562 -22.226562 4.066406 -22.472656 3.640625 -22.609375 C 3.222656 -22.742188 2.566406 -22.8125 1.671875 -22.8125 C 1.597656 -22.8125 1.5625 -22.882812 1.5625 -23.03125 C 1.5625 -23.1875 1.597656 -23.265625 1.671875 -23.265625 L 3.5 -23.21875 C 4.539062 -23.175781 5.394531 -23.15625 6.0625 -23.15625 C 6.582031 -23.15625 7.078125 -23.164062 7.546875 -23.1875 C 8.023438 -23.207031 8.4375 -23.234375 8.78125 -23.265625 C 9.695312 -23.335938 10.554688 -23.375 11.359375 -23.375 C 13.335938 -23.375 14.878906 -22.929688 15.984375 -22.046875 C 17.085938 -21.171875 17.640625 -19.988281 17.640625 -18.5 C 17.640625 -17.15625 17.25 -15.9375 16.46875 -14.84375 C 15.6875 -13.757812 14.648438 -12.90625 13.359375 -12.28125 C 15.441406 -9.28125 17.179688 -6.9375 18.578125 -5.25 C 19.984375 -3.5625 21.238281 -2.335938 22.34375 -1.578125 C 23.445312 -0.828125 24.519531 -0.453125 25.5625 -0.453125 Z M 7.4375 -12.3125 C 8.132812 -12.238281 8.867188 -12.203125 9.640625 -12.203125 C 11.503906 -12.203125 12.832031 -12.617188 13.625 -13.453125 C 14.414062 -14.285156 14.8125 -15.582031 14.8125 -17.34375 C 14.8125 -19.300781 14.398438 -20.695312 13.578125 -21.53125 C 12.765625 -22.363281 11.585938 -22.78125 10.046875 -22.78125 C 9.078125 -22.78125 8.398438 -22.597656 8.015625 -22.234375 C 7.628906 -21.878906 7.4375 -21.191406 7.4375 -20.171875 Z M 7.4375 -12.3125 "/></g></g></g><g fill="#242221" fill-opacity="1"><g transform="translate(240.917494, 155.551413)"><g><path d="M 7.59375 -3.015625 C 7.59375 -2.242188 7.664062 -1.679688 7.8125 -1.328125 C 7.96875 -0.984375 8.253906 -0.75 8.671875 -0.625 C 9.097656 -0.507812 9.769531 -0.453125 10.6875 -0.453125 C 10.726562 -0.453125 10.75 -0.375 10.75 -0.21875 C 10.75 -0.0703125 10.726562 0 10.6875 0 C 9.914062 0 9.304688 -0.0078125 8.859375 -0.03125 L 6.171875 -0.078125 L 3.609375 -0.03125 C 3.140625 -0.0078125 2.507812 0 1.71875 0 C 1.632812 0 1.59375 -0.0703125 1.59375 -0.21875 C 1.59375 -0.375 1.632812 -0.453125 1.71875 -0.453125 C 2.632812 -0.453125 3.300781 -0.507812 3.71875 -0.625 C 4.144531 -0.75 4.4375 -0.988281 4.59375 -1.34375 C 4.757812 -1.707031 4.84375 -2.265625 4.84375 -3.015625 L 4.84375 -20.25 C 4.84375 -20.988281 4.757812 -21.53125 4.59375 -21.875 C 4.4375 -22.226562 4.144531 -22.472656 3.71875 -22.609375 C 3.300781 -22.742188 2.632812 -22.8125 1.71875 -22.8125 C 1.632812 -22.8125 1.59375 -22.882812 1.59375 -23.03125 C 1.59375 -23.1875 1.632812 -23.265625 1.71875 -23.265625 L 3.609375 -23.21875 C 4.648438 -23.175781 5.503906 -23.15625 6.171875 -23.15625 C 6.890625 -23.15625 7.796875 -23.175781 8.890625 -23.21875 L 10.6875 -23.265625 C 10.726562 -23.265625 10.75 -23.1875 10.75 -23.03125 C 10.75 -22.882812 10.726562 -22.8125 10.6875 -22.8125 C 9.789062 -22.8125 9.125 -22.738281 8.6875 -22.59375 C 8.257812 -22.445312 7.96875 -22.191406 7.8125 -21.828125 C 7.664062 -21.472656 7.59375 -20.921875 7.59375 -20.171875 Z M 7.59375 -3.015625 "/></g></g></g><g fill="#242221" fill-opacity="1"><g transform="translate(251.933492, 155.551413)"><g><path d="M 13.625 0.453125 C 11.3125 0.453125 9.253906 -0.0859375 7.453125 -1.171875 C 5.660156 -2.253906 4.273438 -3.71875 3.296875 -5.5625 C 2.316406 -7.414062 1.828125 -9.429688 1.828125 -11.609375 C 1.828125 -14.171875 2.46875 -16.363281 3.75 -18.1875 C 5.039062 -20.007812 6.695312 -21.378906 8.71875 -22.296875 C 10.75 -23.210938 12.816406 -23.671875 14.921875 -23.671875 C 17.273438 -23.671875 19.34375 -23.117188 21.125 -22.015625 C 22.914062 -20.910156 24.289062 -19.453125 25.25 -17.640625 C 26.207031 -15.828125 26.6875 -13.90625 26.6875 -11.875 C 26.6875 -9.613281 26.085938 -7.539062 24.890625 -5.65625 C 23.703125 -3.769531 22.109375 -2.28125 20.109375 -1.1875 C 18.117188 -0.09375 15.957031 0.453125 13.625 0.453125 Z M 14.921875 -0.375 C 16.554688 -0.375 18.023438 -0.78125 19.328125 -1.59375 C 20.640625 -2.414062 21.671875 -3.613281 22.421875 -5.1875 C 23.179688 -6.769531 23.5625 -8.648438 23.5625 -10.828125 C 23.5625 -13.140625 23.144531 -15.195312 22.3125 -17 C 21.476562 -18.8125 20.289062 -20.226562 18.75 -21.25 C 17.21875 -22.269531 15.4375 -22.78125 13.40625 -22.78125 C 10.75 -22.78125 8.675781 -21.90625 7.1875 -20.15625 C 5.695312 -18.40625 4.953125 -15.992188 4.953125 -12.921875 C 4.953125 -10.585938 5.375 -8.460938 6.21875 -6.546875 C 7.0625 -4.640625 8.238281 -3.132812 9.75 -2.03125 C 11.257812 -0.925781 12.984375 -0.375 14.921875 -0.375 Z M 14.921875 -0.375 "/></g></g></g><g fill="#242221" fill-opacity="1"><g transform="translate(279.027508, 155.551413)"><g><path d="M 5.578125 -19.015625 C 5.578125 -18.078125 5.8125 -17.25 6.28125 -16.53125 C 6.757812 -15.8125 7.332031 -15.203125 8 -14.703125 C 8.664062 -14.203125 9.609375 -13.59375 10.828125 -12.875 C 12.097656 -12.101562 13.09375 -11.445312 13.8125 -10.90625 C 14.53125 -10.363281 15.140625 -9.679688 15.640625 -8.859375 C 16.148438 -8.035156 16.40625 -7.066406 16.40625 -5.953125 C 16.40625 -4.734375 16.101562 -3.640625 15.5 -2.671875 C 14.894531 -1.710938 14.007812 -0.953125 12.84375 -0.390625 C 11.675781 0.171875 10.296875 0.453125 8.703125 0.453125 C 6.691406 0.453125 4.90625 0.00390625 3.34375 -0.890625 C 3.21875 -0.960938 3.128906 -1.046875 3.078125 -1.140625 C 3.035156 -1.242188 3.003906 -1.394531 2.984375 -1.59375 L 2.5625 -6.8125 C 2.539062 -6.90625 2.597656 -6.960938 2.734375 -6.984375 C 2.867188 -7.015625 2.953125 -6.984375 2.984375 -6.890625 C 3.472656 -5.046875 4.25 -3.472656 5.3125 -2.171875 C 6.382812 -0.867188 7.800781 -0.21875 9.5625 -0.21875 C 10.78125 -0.21875 11.796875 -0.539062 12.609375 -1.1875 C 13.429688 -1.832031 13.84375 -2.890625 13.84375 -4.359375 C 13.84375 -5.472656 13.59375 -6.429688 13.09375 -7.234375 C 12.601562 -8.046875 12.003906 -8.726562 11.296875 -9.28125 C 10.585938 -9.84375 9.625 -10.484375 8.40625 -11.203125 C 7.195312 -11.972656 6.253906 -12.609375 5.578125 -13.109375 C 4.910156 -13.617188 4.335938 -14.265625 3.859375 -15.046875 C 3.390625 -15.835938 3.15625 -16.765625 3.15625 -17.828125 C 3.15625 -19.085938 3.488281 -20.160156 4.15625 -21.046875 C 4.832031 -21.929688 5.71875 -22.585938 6.8125 -23.015625 C 7.90625 -23.453125 9.054688 -23.671875 10.265625 -23.671875 C 11.804688 -23.671875 13.285156 -23.382812 14.703125 -22.8125 C 15.078125 -22.632812 15.265625 -22.410156 15.265625 -22.140625 L 15.484375 -17.671875 C 15.484375 -17.578125 15.414062 -17.515625 15.28125 -17.484375 C 15.144531 -17.460938 15.0625 -17.503906 15.03125 -17.609375 C 14.789062 -18.921875 14.234375 -20.160156 13.359375 -21.328125 C 12.492188 -22.492188 11.242188 -23.078125 9.609375 -23.078125 C 8.285156 -23.078125 7.28125 -22.691406 6.59375 -21.921875 C 5.914062 -21.148438 5.578125 -20.179688 5.578125 -19.015625 Z M 5.578125 -19.015625 "/></g></g></g><g fill="#242221" fill-opacity="1"><g transform="translate(296.019508, 155.551413)"><g/></g></g><g fill="#242221" fill-opacity="1"><g transform="translate(114.985453, 193.460168)"><g><path d="M 5.578125 -19.015625 C 5.578125 -18.078125 5.8125 -17.25 6.28125 -16.53125 C 6.757812 -15.8125 7.332031 -15.203125 8 -14.703125 C 8.664062 -14.203125 9.609375 -13.59375 10.828125 -12.875 C 12.097656 -12.101562 13.09375 -11.445312 13.8125 -10.90625 C 14.53125 -10.363281 15.140625 -9.679688 15.640625 -8.859375 C 16.148438 -8.035156 16.40625 -7.066406 16.40625 -5.953125 C 16.40625 -4.734375 16.101562 -3.640625 15.5 -2.671875 C 14.894531 -1.710938 14.007812 -0.953125 12.84375 -0.390625 C 11.675781 0.171875 10.296875 0.453125 8.703125 0.453125 C 6.691406 0.453125 4.90625 0.00390625 3.34375 -0.890625 C 3.21875 -0.960938 3.128906 -1.046875 3.078125 -1.140625 C 3.035156 -1.242188 3.003906 -1.394531 2.984375 -1.59375 L 2.5625 -6.8125 C 2.539062 -6.90625 2.597656 -6.960938 2.734375 -6.984375 C 2.867188 -7.015625 2.953125 -6.984375 2.984375 -6.890625 C 3.472656 -5.046875 4.25 -3.472656 5.3125 -2.171875 C 6.382812 -0.867188 7.800781 -0.21875 9.5625 -0.21875 C 10.78125 -0.21875 11.796875 -0.539062 12.609375 -1.1875 C 13.429688 -1.832031 13.84375 -2.890625 13.84375 -4.359375 C 13.84375 -5.472656 13.59375 -6.429688 13.09375 -7.234375 C 12.601562 -8.046875 12.003906 -8.726562 11.296875 -9.28125 C 10.585938 -9.84375 9.625 -10.484375 8.40625 -11.203125 C 7.195312 -11.972656 6.253906 -12.609375 5.578125 -13.109375 C 4.910156 -13.617188 4.335938 -14.265625 3.859375 -15.046875 C 3.390625 -15.835938 3.15625 -16.765625 3.15625 -17.828125 C 3.15625 -19.085938 3.488281 -20.160156 4.15625 -21.046875 C 4.832031 -21.929688 5.71875 -22.585938 6.8125 -23.015625 C 7.90625 -23.453125 9.054688 -23.671875 10.265625 -23.671875 C 11.804688 -23.671875 13.285156 -23.382812 14.703125 -22.8125 C 15.078125 -22.632812 15.265625 -22.410156 15.265625 -22.140625 L 15.484375 -17.671875 C 15.484375 -17.578125 15.414062 -17.515625 15.28125 -17.484375 C 15.144531 -17.460938 15.0625 -17.503906 15.03125 -17.609375 C 14.789062 -18.921875 14.234375 -20.160156 13.359375 -21.328125 C 12.492188 -22.492188 11.242188 -23.078125 9.609375 -23.078125 C 8.285156 -23.078125 7.28125 -22.691406 6.59375 -21.921875 C 5.914062 -21.148438 5.578125 -20.179688 5.578125 -19.015625 Z M 5.578125 -19.015625 "/></g></g></g><g fill="#242221" fill-opacity="1"><g transform="translate(131.99349, 193.460168)"><g><path d="M 26.125 -0.453125 C 26.226562 -0.453125 26.28125 -0.375 26.28125 -0.21875 C 26.28125 -0.0703125 26.226562 0 26.125 0 C 25.65625 0 24.925781 -0.0234375 23.9375 -0.078125 C 22.9375 -0.128906 22.203125 -0.15625 21.734375 -0.15625 C 21.160156 -0.15625 20.453125 -0.128906 19.609375 -0.078125 C 18.816406 -0.0234375 18.195312 0 17.75 0 C 17.65625 0 17.609375 -0.0703125 17.609375 -0.21875 C 17.609375 -0.375 17.65625 -0.453125 17.75 -0.453125 C 18.644531 -0.453125 19.285156 -0.53125 19.671875 -0.6875 C 20.054688 -0.851562 20.25 -1.144531 20.25 -1.5625 C 20.25 -1.9375 20.070312 -2.492188 19.71875 -3.234375 L 16.53125 -9.9375 L 7.625 -9.9375 L 5.4375 -4.84375 C 5.113281 -4.09375 4.953125 -3.410156 4.953125 -2.796875 C 4.953125 -1.234375 6.15625 -0.453125 8.5625 -0.453125 C 8.6875 -0.453125 8.75 -0.375 8.75 -0.21875 C 8.75 -0.0703125 8.6875 0 8.5625 0 C 8.113281 0 7.46875 -0.0234375 6.625 -0.078125 C 5.675781 -0.128906 4.859375 -0.15625 4.171875 -0.15625 C 3.546875 -0.15625 2.785156 -0.128906 1.890625 -0.078125 C 1.148438 -0.0234375 0.519531 0 0 0 C -0.125 0 -0.1875 -0.0703125 -0.1875 -0.21875 C -0.1875 -0.375 -0.125 -0.453125 0 -0.453125 C 0.695312 -0.453125 1.285156 -0.582031 1.765625 -0.84375 C 2.253906 -1.101562 2.71875 -1.566406 3.15625 -2.234375 C 3.601562 -2.898438 4.101562 -3.878906 4.65625 -5.171875 L 12.5 -23.5625 C 12.550781 -23.632812 12.648438 -23.671875 12.796875 -23.671875 C 12.953125 -23.671875 13.039062 -23.632812 13.0625 -23.5625 L 21.921875 -5.09375 C 22.765625 -3.28125 23.484375 -2.050781 24.078125 -1.40625 C 24.671875 -0.769531 25.351562 -0.453125 26.125 -0.453125 Z M 7.96875 -10.71875 L 16.15625 -10.71875 L 11.828125 -19.71875 Z M 7.96875 -10.71875 "/></g></g></g><g fill="#242221" fill-opacity="1"><g transform="translate(156.780005, 193.460168)"><g><path d="M 26.3125 -23.265625 C 26.382812 -23.265625 26.421875 -23.1875 26.421875 -23.03125 C 26.421875 -22.882812 26.382812 -22.8125 26.3125 -22.8125 C 25.289062 -22.8125 24.539062 -22.503906 24.0625 -21.890625 C 23.582031 -21.285156 23.34375 -20.34375 23.34375 -19.0625 L 23.34375 0.453125 C 23.34375 0.523438 23.28125 0.570312 23.15625 0.59375 C 23.03125 0.613281 22.941406 0.601562 22.890625 0.5625 L 5.546875 -20.203125 L 5.4375 -20.359375 L 5.4375 -4.171875 C 5.4375 -2.878906 5.671875 -1.9375 6.140625 -1.34375 C 6.609375 -0.75 7.34375 -0.453125 8.34375 -0.453125 C 8.414062 -0.453125 8.453125 -0.375 8.453125 -0.21875 C 8.453125 -0.0703125 8.414062 0 8.34375 0 C 7.738281 0 7.265625 -0.0078125 6.921875 -0.03125 L 5.03125 -0.078125 L 3.046875 -0.03125 C 2.679688 -0.0078125 2.148438 0 1.453125 0 C 1.398438 0 1.375 -0.0703125 1.375 -0.21875 C 1.375 -0.375 1.398438 -0.453125 1.453125 -0.453125 C 2.515625 -0.453125 3.285156 -0.75 3.765625 -1.34375 C 4.253906 -1.9375 4.5 -2.878906 4.5 -4.171875 L 4.5 -21.328125 C 3.488281 -22.316406 2.460938 -22.8125 1.421875 -22.8125 C 1.335938 -22.8125 1.296875 -22.882812 1.296875 -23.03125 C 1.296875 -23.1875 1.335938 -23.265625 1.421875 -23.265625 L 2.796875 -23.21875 C 3.085938 -23.195312 3.507812 -23.1875 4.0625 -23.1875 L 5.8125 -23.21875 C 6.007812 -23.25 6.269531 -23.265625 6.59375 -23.265625 C 6.789062 -23.265625 6.929688 -23.21875 7.015625 -23.125 C 7.097656 -23.039062 7.238281 -22.847656 7.4375 -22.546875 C 7.738281 -22.109375 8.039062 -21.703125 8.34375 -21.328125 L 22.40625 -4.28125 L 22.40625 -19.0625 C 22.40625 -20.34375 22.179688 -21.285156 21.734375 -21.890625 C 21.285156 -22.503906 20.554688 -22.8125 19.546875 -22.8125 C 19.492188 -22.8125 19.46875 -22.882812 19.46875 -23.03125 C 19.46875 -23.1875 19.492188 -23.265625 19.546875 -23.265625 L 20.984375 -23.21875 C 21.785156 -23.175781 22.421875 -23.15625 22.890625 -23.15625 C 23.359375 -23.15625 23.988281 -23.175781 24.78125 -23.21875 Z M 26.3125 -23.265625 "/></g></g></g><g fill="#242221" fill-opacity="1"><g transform="translate(182.459751, 193.460168)"><g/></g></g><g fill="#242221" fill-opacity="1"><g transform="translate(189.753997, 193.460168)"><g><path d="M 17.125 -18.28125 C 17.125 -18.195312 17.054688 -18.15625 16.921875 -18.15625 C 16.785156 -18.15625 16.71875 -18.195312 16.71875 -18.28125 C 16.5625 -19.613281 16.097656 -20.640625 15.328125 -21.359375 C 14.566406 -22.078125 13.5625 -22.4375 12.3125 -22.4375 L 10.265625 -22.4375 C 9.148438 -22.4375 8.394531 -22.28125 8 -21.96875 C 7.601562 -21.664062 7.40625 -21.078125 7.40625 -20.203125 L 7.40625 -12.0625 L 10.984375 -12.0625 C 12.316406 -12.0625 13.28125 -12.273438 13.875 -12.703125 C 14.476562 -13.140625 14.78125 -13.816406 14.78125 -14.734375 C 14.78125 -14.785156 14.851562 -14.8125 15 -14.8125 C 15.144531 -14.8125 15.21875 -14.785156 15.21875 -14.734375 L 15.1875 -11.65625 C 15.1875 -10.925781 15.195312 -10.378906 15.21875 -10.015625 L 15.265625 -8.15625 C 15.265625 -8.101562 15.1875 -8.078125 15.03125 -8.078125 C 14.882812 -8.078125 14.8125 -8.101562 14.8125 -8.15625 C 14.8125 -9.238281 14.5 -10.019531 13.875 -10.5 C 13.257812 -10.988281 12.257812 -11.234375 10.875 -11.234375 L 7.40625 -11.234375 L 7.40625 -3.15625 C 7.40625 -2.363281 7.507812 -1.785156 7.71875 -1.421875 C 7.9375 -1.066406 8.347656 -0.816406 8.953125 -0.671875 C 9.554688 -0.523438 10.515625 -0.453125 11.828125 -0.453125 C 11.878906 -0.453125 11.90625 -0.375 11.90625 -0.21875 C 11.90625 -0.0703125 11.878906 0 11.828125 0 C 10.816406 0 10.023438 -0.0078125 9.453125 -0.03125 L 6 -0.078125 L 3.46875 -0.03125 C 2.988281 -0.0078125 2.34375 0 1.53125 0 C 1.457031 0 1.421875 -0.0703125 1.421875 -0.21875 C 1.421875 -0.375 1.457031 -0.453125 1.53125 -0.453125 C 2.445312 -0.453125 3.117188 -0.507812 3.546875 -0.625 C 3.984375 -0.75 4.28125 -0.988281 4.4375 -1.34375 C 4.601562 -1.707031 4.6875 -2.265625 4.6875 -3.015625 L 4.6875 -20.25 C 4.6875 -20.988281 4.613281 -21.53125 4.46875 -21.875 C 4.320312 -22.226562 4.035156 -22.472656 3.609375 -22.609375 C 3.191406 -22.742188 2.519531 -22.8125 1.59375 -22.8125 C 1.550781 -22.8125 1.53125 -22.882812 1.53125 -23.03125 C 1.53125 -23.1875 1.550781 -23.265625 1.59375 -23.265625 L 16.71875 -23.265625 C 16.9375 -23.265625 17.046875 -23.148438 17.046875 -22.921875 Z M 17.125 -18.28125 "/></g></g></g><g fill="#242221" fill-opacity="1"><g transform="translate(207.394733, 193.460168)"><g><path d="M 15.40625 -23.671875 C 16.894531 -23.671875 18.175781 -23.5625 19.25 -23.34375 C 20.332031 -23.132812 21.394531 -22.785156 22.4375 -22.296875 C 22.613281 -22.191406 22.71875 -22.097656 22.75 -22.015625 C 22.789062 -21.929688 22.828125 -21.738281 22.859375 -21.4375 L 23.34375 -16.890625 C 23.34375 -16.816406 23.269531 -16.769531 23.125 -16.75 C 22.988281 -16.726562 22.910156 -16.765625 22.890625 -16.859375 C 21.671875 -21.003906 19.101562 -23.078125 15.1875 -23.078125 C 13.175781 -23.078125 11.398438 -22.617188 9.859375 -21.703125 C 8.328125 -20.785156 7.128906 -19.472656 6.265625 -17.765625 C 5.410156 -16.066406 4.984375 -14.085938 4.984375 -11.828125 C 4.984375 -9.648438 5.445312 -7.664062 6.375 -5.875 C 7.3125 -4.09375 8.570312 -2.691406 10.15625 -1.671875 C 11.75 -0.660156 13.488281 -0.15625 15.375 -0.15625 C 17.332031 -0.15625 18.9375 -0.644531 20.1875 -1.625 C 21.445312 -2.601562 22.445312 -4.117188 23.1875 -6.171875 C 23.207031 -6.253906 23.28125 -6.28125 23.40625 -6.25 C 23.53125 -6.226562 23.59375 -6.191406 23.59375 -6.140625 L 23.21875 -1.96875 C 23.175781 -1.675781 23.132812 -1.484375 23.09375 -1.390625 C 23.050781 -1.304688 22.945312 -1.210938 22.78125 -1.109375 C 21.507812 -0.515625 20.300781 -0.101562 19.15625 0.125 C 18.019531 0.363281 16.742188 0.484375 15.328125 0.484375 C 12.722656 0.484375 10.394531 -0.03125 8.34375 -1.0625 C 6.300781 -2.09375 4.703125 -3.53125 3.546875 -5.375 C 2.398438 -7.226562 1.828125 -9.34375 1.828125 -11.71875 C 1.828125 -14.050781 2.410156 -16.125 3.578125 -17.9375 C 4.742188 -19.75 6.359375 -21.15625 8.421875 -22.15625 C 10.492188 -23.164062 12.820312 -23.671875 15.40625 -23.671875 Z M 15.40625 -23.671875 "/></g></g></g><g fill="#242221" fill-opacity="1"><g transform="translate(231.474123, 193.460168)"><g><path d="M 13.625 0.453125 C 11.3125 0.453125 9.253906 -0.0859375 7.453125 -1.171875 C 5.660156 -2.253906 4.273438 -3.71875 3.296875 -5.5625 C 2.316406 -7.414062 1.828125 -9.429688 1.828125 -11.609375 C 1.828125 -14.171875 2.46875 -16.363281 3.75 -18.1875 C 5.039062 -20.007812 6.695312 -21.378906 8.71875 -22.296875 C 10.75 -23.210938 12.816406 -23.671875 14.921875 -23.671875 C 17.273438 -23.671875 19.34375 -23.117188 21.125 -22.015625 C 22.914062 -20.910156 24.289062 -19.453125 25.25 -17.640625 C 26.207031 -15.828125 26.6875 -13.90625 26.6875 -11.875 C 26.6875 -9.613281 26.085938 -7.539062 24.890625 -5.65625 C 23.703125 -3.769531 22.109375 -2.28125 20.109375 -1.1875 C 18.117188 -0.09375 15.957031 0.453125 13.625 0.453125 Z M 14.921875 -0.375 C 16.554688 -0.375 18.023438 -0.78125 19.328125 -1.59375 C 20.640625 -2.414062 21.671875 -3.613281 22.421875 -5.1875 C 23.179688 -6.769531 23.5625 -8.648438 23.5625 -10.828125 C 23.5625 -13.140625 23.144531 -15.195312 22.3125 -17 C 21.476562 -18.8125 20.289062 -20.226562 18.75 -21.25 C 17.21875 -22.269531 15.4375 -22.78125 13.40625 -22.78125 C 10.75 -22.78125 8.675781 -21.90625 7.1875 -20.15625 C 5.695312 -18.40625 4.953125 -15.992188 4.953125 -12.921875 C 4.953125 -10.585938 5.375 -8.460938 6.21875 -6.546875 C 7.0625 -4.640625 8.238281 -3.132812 9.75 -2.03125 C 11.257812 -0.925781 12.984375 -0.375 14.921875 -0.375 Z M 14.921875 -0.375 "/></g></g></g><g fill="#242221" fill-opacity="1"><g transform="translate(129.945156, 218.865221)"><g><path d="M 3.171875 0.433594 C 4.746094 0.433594 7.121094 -0.914062 8.238281 -1.917969 C 9.128906 -2.671875 9.90625 -3.539062 10.65625 -4.425781 C 10.679688 -4.472656 10.726562 -4.519531 10.75 -4.566406 C 10.773438 -4.585938 10.816406 -4.632812 10.839844 -4.679688 C 10.910156 -4.816406 10.910156 -4.929688 10.796875 -5.019531 C 10.75 -5.066406 10.679688 -5.089844 10.613281 -5.089844 C 10.566406 -5.089844 10.519531 -5.066406 10.453125 -5.042969 C 10.382812 -4.976562 10.292969 -4.882812 10.222656 -4.816406 C 10.15625 -4.722656 10.066406 -4.632812 9.996094 -4.566406 C 8.398438 -2.671875 6.734375 -1.1875 4.382812 -0.386719 C 3.949219 -0.226562 3.558594 -0.160156 3.21875 -0.160156 C 2.238281 -0.183594 1.484375 -0.546875 1.027344 -1.4375 C 0.59375 -2.238281 0.503906 -3.058594 0.59375 -3.902344 C 1.027344 -7.578125 2.648438 -11.296875 5.957031 -13.101562 C 6.390625 -13.304688 6.800781 -13.464844 7.210938 -13.578125 C 7.371094 -13.601562 7.484375 -13.625 7.601562 -13.625 C 8.171875 -13.625 8.46875 -13.28125 8.511719 -12.597656 C 8.558594 -12.300781 8.535156 -11.980469 8.421875 -11.640625 C 8.078125 -10.363281 7.167969 -9.058594 6.367188 -8.035156 C 6.253906 -7.917969 6.230469 -7.828125 6.277344 -7.714844 C 6.300781 -7.667969 6.367188 -7.644531 6.4375 -7.644531 C 6.59375 -7.644531 6.734375 -7.757812 6.824219 -7.917969 C 7.738281 -9.082031 8.671875 -10.316406 9.015625 -11.777344 C 9.128906 -12.210938 9.128906 -12.597656 9.039062 -12.964844 C 8.855469 -13.875 8.375 -14.21875 7.464844 -14.21875 C 5.433594 -13.988281 3.242188 -12.074219 2.191406 -10.363281 C 1.140625 -8.765625 0 -5.589844 0 -3.652344 C -0.0234375 -2.535156 0.160156 -1.644531 0.683594 -0.84375 C 1.230469 0.046875 2.167969 0.433594 3.171875 0.433594 Z M 3.171875 0.433594 "/></g></g></g><g fill="#242221" fill-opacity="1"><g transform="translate(140.692195, 218.865221)"><g><path d="M 0.957031 -1.140625 C 1.164062 -1.140625 1.390625 -1.210938 1.597656 -1.324219 C 1.894531 -1.527344 2.121094 -1.78125 2.28125 -2.121094 C 2.488281 -2.554688 2.535156 -2.988281 2.441406 -3.421875 C 2.375 -3.8125 2.351562 -3.8125 2.785156 -3.878906 C 3.261719 -3.925781 3.695312 -4.039062 4.132812 -4.199219 C 4.542969 -4.359375 4.976562 -4.496094 5.410156 -4.65625 C 5.613281 -4.722656 5.660156 -4.859375 5.589844 -5.019531 C 5.523438 -5.136719 5.410156 -5.203125 5.292969 -5.203125 L 4.929688 -5.113281 C 4.722656 -5.042969 4.519531 -4.953125 4.3125 -4.882812 C 4.109375 -4.816406 3.878906 -4.722656 3.675781 -4.65625 C 3.242188 -4.519531 2.828125 -4.449219 2.394531 -4.449219 L 1.6875 -4.449219 C 1.527344 -4.425781 1.390625 -4.269531 1.460938 -4.109375 C 1.527344 -3.949219 1.597656 -3.8125 1.6875 -3.652344 C 2.03125 -3.125 1.917969 -2.648438 1.621094 -2.167969 C 1.414062 -1.804688 1.1875 -1.757812 0.820312 -1.757812 C 0.523438 -1.824219 0.363281 -2.101562 0.363281 -2.535156 C 0.363281 -2.785156 0.386719 -3.011719 0.457031 -3.195312 C 0.546875 -3.582031 0.707031 -3.972656 0.914062 -4.359375 C 1.164062 -4.746094 1.371094 -5.136719 1.894531 -5.226562 C 2.054688 -5.25 2.054688 -5.363281 2.03125 -5.523438 C 2.007812 -5.636719 1.941406 -5.726562 1.78125 -5.75 C 1.667969 -5.75 1.574219 -5.726562 1.484375 -5.683594 C 0.59375 -5.339844 -0.160156 -3.628906 -0.226562 -2.691406 C -0.25 -2.511719 -0.226562 -2.304688 -0.183594 -2.101562 C -0.0703125 -1.484375 0.410156 -1.140625 0.957031 -1.140625 Z M 0.957031 -1.140625 "/></g></g></g><g fill="#242221" fill-opacity="1"><g transform="translate(146.168623, 218.865221)"><g><path d="M 0.753906 1.210938 C 1.210938 1.210938 1.941406 0.433594 2.191406 0.046875 C 2.671875 -0.59375 3.171875 -1.253906 3.675781 -1.960938 C 4.152344 -2.648438 4.65625 -3.308594 5.136719 -3.925781 C 5.25 -4.109375 5.386719 -4.3125 5.476562 -4.496094 C 5.546875 -4.566406 5.570312 -4.65625 5.570312 -4.769531 C 5.589844 -4.882812 5.570312 -4.976562 5.453125 -5.019531 C 5.386719 -5.042969 5.339844 -5.066406 5.292969 -5.066406 C 5.136719 -5.066406 4.929688 -4.703125 4.859375 -4.585938 C 3.855469 -3.195312 2.691406 -1.574219 1.621094 -0.207031 C 1.507812 -0.046875 1.074219 0.503906 0.867188 0.503906 C 0.753906 0.503906 0.683594 0.433594 0.660156 0.320312 C 0.503906 -0.136719 0.546875 -0.617188 0.617188 -1.074219 C 0.730469 -2.488281 1.050781 -4.976562 1.847656 -6.183594 C 2.898438 -7.757812 4.859375 -11.046875 5.273438 -12.871094 C 5.292969 -13.054688 5.273438 -13.238281 5.066406 -13.328125 C 4.976562 -13.351562 4.929688 -13.375 4.90625 -13.375 C 4.816406 -13.375 4.703125 -13.328125 4.585938 -13.238281 C 3.011719 -11.664062 1.734375 -8.214844 1.050781 -6.140625 C 0.890625 -5.613281 0.753906 -5.15625 0.410156 -4.722656 C 0.320312 -4.632812 0.25 -4.496094 0.34375 -4.382812 C 0.546875 -4.132812 0.457031 -3.855469 0.386719 -3.605469 C 0.183594 -2.625 0.0234375 -1.667969 0 -0.503906 C 0 -0.433594 0 -0.320312 0 -0.183594 C 0 -0.046875 0 0.0898438 0.0234375 0.25 C 0.0898438 0.617188 0.320312 1.210938 0.753906 1.210938 Z M 2.601562 -8.191406 C 2.535156 -8.332031 2.554688 -8.488281 2.625 -8.671875 C 3.058594 -9.789062 3.582031 -10.839844 4.199219 -11.867188 C 4.289062 -11.980469 4.359375 -12.050781 4.425781 -12.050781 C 4.449219 -12.050781 4.496094 -12.027344 4.566406 -12.003906 C 4.542969 -12.027344 4.542969 -12.050781 4.542969 -12.074219 C 4.542969 -12.050781 4.542969 -12.050781 4.566406 -12.027344 L 4.566406 -12.003906 L 3.949219 -10.773438 C 3.492188 -9.90625 3.058594 -9.039062 2.625 -8.191406 C 2.625 -8.214844 2.625 -8.214844 2.625 -8.214844 C 2.601562 -8.214844 2.601562 -8.214844 2.601562 -8.191406 Z M 2.601562 -8.191406 "/></g></g></g><g fill="#242221" fill-opacity="1"><g transform="translate(151.599412, 218.865221)"><g><path d="M 0.957031 -1.140625 C 1.164062 -1.140625 1.390625 -1.210938 1.597656 -1.324219 C 1.894531 -1.527344 2.121094 -1.78125 2.28125 -2.121094 C 2.488281 -2.554688 2.535156 -2.988281 2.441406 -3.421875 C 2.375 -3.8125 2.351562 -3.8125 2.785156 -3.878906 C 3.261719 -3.925781 3.695312 -4.039062 4.132812 -4.199219 C 4.542969 -4.359375 4.976562 -4.496094 5.410156 -4.65625 C 5.613281 -4.722656 5.660156 -4.859375 5.589844 -5.019531 C 5.523438 -5.136719 5.410156 -5.203125 5.292969 -5.203125 L 4.929688 -5.113281 C 4.722656 -5.042969 4.519531 -4.953125 4.3125 -4.882812 C 4.109375 -4.816406 3.878906 -4.722656 3.675781 -4.65625 C 3.242188 -4.519531 2.828125 -4.449219 2.394531 -4.449219 L 1.6875 -4.449219 C 1.527344 -4.425781 1.390625 -4.269531 1.460938 -4.109375 C 1.527344 -3.949219 1.597656 -3.8125 1.6875 -3.652344 C 2.03125 -3.125 1.917969 -2.648438 1.621094 -2.167969 C 1.414062 -1.804688 1.1875 -1.757812 0.820312 -1.757812 C 0.523438 -1.824219 0.363281 -2.101562 0.363281 -2.535156 C 0.363281 -2.785156 0.386719 -3.011719 0.457031 -3.195312 C 0.546875 -3.582031 0.707031 -3.972656 0.914062 -4.359375 C 1.164062 -4.746094 1.371094 -5.136719 1.894531 -5.226562 C 2.054688 -5.25 2.054688 -5.363281 2.03125 -5.523438 C 2.007812 -5.636719 1.941406 -5.726562 1.78125 -5.75 C 1.667969 -5.75 1.574219 -5.726562 1.484375 -5.683594 C 0.59375 -5.339844 -0.160156 -3.628906 -0.226562 -2.691406 C -0.25 -2.511719 -0.226562 -2.304688 -0.183594 -2.101562 C -0.0703125 -1.484375 0.410156 -1.140625 0.957031 -1.140625 Z M 0.957031 -1.140625 "/></g></g></g><g fill="#242221" fill-opacity="1"><g transform="translate(157.07584, 218.865221)"><g><path d="M -0.0703125 0.386719 C 0.0703125 0.386719 0.183594 0.320312 0.25 0.207031 C 0.410156 -0.046875 0.546875 -0.25 0.660156 -0.503906 C 0.867188 -0.890625 1.050781 -1.253906 1.230469 -1.621094 C 1.390625 -1.984375 1.574219 -2.351562 1.757812 -2.714844 C 2.03125 -3.242188 2.351562 -3.742188 2.785156 -4.175781 C 2.875 -4.289062 2.96875 -4.40625 3.171875 -4.40625 C 3.242188 -4.3125 3.285156 -4.222656 3.332031 -4.132812 C 3.378906 -4.039062 3.445312 -3.949219 3.515625 -3.855469 C 3.765625 -3.515625 4.0625 -3.355469 4.449219 -3.355469 C 5.089844 -3.355469 6.046875 -4.109375 6.480469 -4.542969 C 6.550781 -4.609375 6.617188 -4.703125 6.6875 -4.839844 C 6.734375 -4.929688 6.710938 -5.019531 6.617188 -5.113281 C 6.550781 -5.15625 6.503906 -5.179688 6.4375 -5.179688 C 6.390625 -5.179688 6.367188 -5.179688 6.34375 -5.15625 C 6.230469 -5.089844 6.140625 -5.019531 6.046875 -4.929688 C 5.660156 -4.609375 4.859375 -3.949219 4.449219 -3.949219 C 4.246094 -3.949219 4.0625 -4.085938 3.902344 -4.359375 C 3.855469 -4.425781 3.8125 -4.519531 3.789062 -4.632812 C 3.742188 -4.722656 3.695312 -4.816406 3.652344 -4.882812 C 3.539062 -5.066406 3.402344 -5.15625 3.21875 -5.15625 C 3.125 -5.15625 3.035156 -5.136719 2.945312 -5.089844 C 2.238281 -4.65625 1.6875 -3.878906 1.324219 -3.171875 L 0.433594 -1.371094 L 0.410156 -1.390625 L 0.433594 -1.390625 C 0.320312 -1.644531 0.386719 -1.871094 0.457031 -2.121094 C 0.640625 -2.808594 0.890625 -3.515625 1.1875 -4.222656 C 1.390625 -4.679688 1.597656 -5.136719 1.78125 -5.589844 C 1.847656 -5.773438 1.894531 -5.933594 1.894531 -6.09375 C 1.917969 -6.207031 1.871094 -6.277344 1.734375 -6.320312 L 1.667969 -6.320312 C 1.574219 -6.320312 1.507812 -6.300781 1.460938 -6.253906 C 1.390625 -6.160156 1.347656 -6.046875 1.277344 -5.933594 C 0.480469 -4.109375 -0.160156 -2.601562 -0.457031 -0.570312 C -0.480469 -0.457031 -0.480469 -0.363281 -0.480469 -0.273438 C -0.457031 -0.160156 -0.457031 -0.0703125 -0.457031 0.0234375 C -0.433594 0.207031 -0.34375 0.320312 -0.183594 0.363281 C -0.160156 0.363281 -0.136719 0.363281 -0.136719 0.386719 C -0.113281 0.386719 -0.0898438 0.386719 -0.0703125 0.386719 Z M -0.0703125 0.386719 "/></g></g></g><g fill="#242221" fill-opacity="1"><g transform="translate(163.647455, 218.865221)"><g><path d="M 1.074219 -0.957031 C 2.648438 -0.957031 5.042969 -3.285156 6.140625 -4.449219 C 6.230469 -4.542969 6.300781 -4.609375 6.320312 -4.679688 C 6.390625 -4.792969 6.367188 -4.90625 6.253906 -5.019531 C 6.207031 -5.066406 6.160156 -5.089844 6.09375 -5.089844 C 6.046875 -5.089844 5.980469 -5.066406 5.910156 -5.019531 C 5.84375 -4.953125 5.773438 -4.882812 5.707031 -4.816406 C 5.636719 -4.746094 5.546875 -4.679688 5.476562 -4.609375 C 5.203125 -4.359375 4.929688 -4.109375 4.679688 -3.855469 C 4.40625 -3.605469 4.132812 -3.332031 3.855469 -3.082031 C 3.195312 -2.464844 2.144531 -1.734375 1.230469 -1.550781 C 0.796875 -1.550781 0.546875 -1.550781 0.457031 -2.078125 C 0.34375 -2.375 0.320312 -2.625 0.386719 -2.875 C 0.410156 -2.988281 0.480469 -3.058594 0.570312 -3.082031 C 1.667969 -3.195312 3.105469 -4.542969 3.285156 -5.660156 C 3.355469 -6.183594 3.058594 -6.503906 2.601562 -6.503906 C 2.578125 -6.503906 2.535156 -6.503906 2.511719 -6.503906 C 2.488281 -6.480469 2.441406 -6.480469 2.417969 -6.480469 C 1.210938 -6.300781 0.320312 -4.703125 -0.0703125 -3.628906 C -0.160156 -3.285156 -0.25 -2.96875 -0.226562 -2.578125 C -0.25 -2.328125 -0.183594 -2.054688 -0.0898438 -1.804688 C 0.0703125 -1.230469 0.457031 -0.957031 1.074219 -0.957031 Z M 0.867188 -3.765625 C 0.84375 -3.742188 0.796875 -3.765625 0.730469 -3.789062 C 0.707031 -3.789062 0.683594 -3.835938 0.683594 -3.902344 C 0.9375 -4.609375 1.710938 -5.75 2.464844 -5.867188 C 2.578125 -5.886719 2.648438 -5.84375 2.671875 -5.683594 C 2.671875 -4.953125 1.460938 -4.085938 0.867188 -3.765625 Z M 0.867188 -3.765625 "/></g></g></g><g fill="#242221" fill-opacity="1"><g transform="translate(169.854003, 218.865221)"><g><path d="M -0.160156 1.824219 C 0.84375 1.824219 1.527344 -0.046875 1.597656 -1.003906 C 1.644531 -1.300781 1.804688 -1.550781 2.054688 -1.734375 L 3.949219 -3.082031 C 4.519531 -3.515625 5.089844 -3.902344 5.707031 -4.335938 C 5.867188 -4.449219 6.003906 -4.566406 6.070312 -4.679688 C 6.183594 -4.792969 6.160156 -4.90625 6.023438 -5.019531 C 5.980469 -5.066406 5.933594 -5.089844 5.867188 -5.089844 C 5.796875 -5.089844 5.726562 -5.066406 5.660156 -5.019531 C 5.589844 -4.953125 5.523438 -4.90625 5.453125 -4.882812 L 2.144531 -2.554688 C 2.054688 -2.488281 1.941406 -2.417969 1.804688 -2.351562 C 1.734375 -2.464844 1.6875 -2.535156 1.6875 -2.554688 C 1.621094 -3.378906 1.484375 -4.175781 1.324219 -5 C 1.300781 -5.113281 1.277344 -5.25 1.277344 -5.363281 C 1.277344 -5.476562 1.277344 -5.613281 1.300781 -5.726562 C 1.371094 -6.574219 2.101562 -7.28125 2.945312 -7.28125 C 3.011719 -7.28125 3.058594 -7.28125 3.082031 -7.304688 C 3.242188 -7.371094 3.285156 -7.554688 3.171875 -7.667969 C 2.988281 -7.851562 2.875 -7.851562 2.625 -7.851562 C 2.375 -7.851562 2.144531 -7.78125 1.917969 -7.644531 C 1.117188 -7.074219 0.640625 -6.34375 0.707031 -5.316406 C 0.730469 -5.019531 0.753906 -4.722656 0.820312 -4.425781 C 0.980469 -3.71875 1.074219 -3.082031 1.09375 -2.375 C 1.09375 -1.941406 1.027344 -1.667969 0.683594 -1.390625 C 0.136719 -1.027344 -0.777344 0.113281 -0.890625 0.730469 C -0.957031 1.117188 -0.890625 1.460938 -0.523438 1.710938 C -0.410156 1.78125 -0.273438 1.824219 -0.160156 1.824219 Z M -0.113281 1.1875 C -0.183594 1.1875 -0.207031 1.164062 -0.226562 1.117188 C -0.273438 1.074219 -0.296875 1.003906 -0.296875 0.9375 C -0.320312 0.890625 -0.320312 0.84375 -0.296875 0.777344 C -0.0703125 0.207031 0.320312 -0.273438 0.84375 -0.660156 C 0.820312 0.0703125 0.480469 0.777344 0.046875 1.117188 C 0 1.164062 -0.046875 1.1875 -0.113281 1.1875 Z M -0.113281 1.1875 "/></g></g></g><g fill="#242221" fill-opacity="1"><g transform="translate(175.832391, 218.865221)"><g/></g></g><g fill="#242221" fill-opacity="1"><g transform="translate(185.507048, 218.865221)"><g><path d="M 3.082031 4.519531 C 4.015625 4.519531 4.585938 1.597656 4.722656 0.730469 C 4.816406 0.207031 5.042969 -0.296875 5.386719 -0.730469 C 6.277344 -1.941406 7.1875 -3.125 8.171875 -4.246094 C 8.332031 -4.449219 8.488281 -4.632812 8.625 -4.839844 C 8.695312 -4.953125 8.671875 -5.042969 8.558594 -5.15625 C 8.511719 -5.203125 8.46875 -5.226562 8.398438 -5.226562 C 8.351562 -5.226562 8.285156 -5.203125 8.214844 -5.15625 C 8.125 -5.089844 8.035156 -5 7.964844 -4.90625 C 7.484375 -4.382812 7.050781 -3.835938 6.617188 -3.308594 C 6.183594 -2.761719 5.75 -2.214844 5.316406 -1.667969 C 5.25 -1.6875 5.203125 -1.710938 5.15625 -1.710938 L 5.292969 -3.035156 C 5.363281 -3.605469 5.453125 -4.199219 5.523438 -4.792969 C 5.589844 -5.363281 5.660156 -5.957031 5.726562 -6.527344 C 5.796875 -6.914062 5.726562 -7.121094 5.523438 -7.167969 C 5.5 -7.167969 5.5 -7.167969 5.476562 -7.1875 C 5.453125 -7.1875 5.453125 -7.1875 5.433594 -7.1875 C 5.316406 -7.1875 5.25 -7.144531 5.179688 -7.074219 C 5.113281 -7.007812 5.042969 -6.914062 4.976562 -6.847656 C 4.769531 -6.59375 4.566406 -6.320312 4.359375 -6.070312 C 4.152344 -5.796875 3.925781 -5.523438 3.71875 -5.273438 C 3.242188 -4.65625 2.738281 -4.109375 2.167969 -3.675781 C 2.054688 -3.605469 1.941406 -3.515625 1.824219 -3.445312 C 1.710938 -3.378906 1.597656 -3.285156 1.484375 -3.21875 C 1.390625 -3.171875 1.324219 -3.148438 1.253906 -3.148438 C 1.09375 -3.148438 1.027344 -3.261719 1.050781 -3.46875 C 1.050781 -3.71875 1.050781 -3.949219 1.117188 -4.199219 C 1.277344 -4.90625 1.414062 -5.570312 1.847656 -6.140625 C 1.960938 -6.300781 1.917969 -6.457031 1.804688 -6.527344 C 1.710938 -6.550781 1.667969 -6.574219 1.644531 -6.574219 C 1.550781 -6.574219 1.460938 -6.527344 1.390625 -6.457031 C 0.730469 -5.660156 0.457031 -4.449219 0.457031 -3.445312 C 0.457031 -2.898438 0.617188 -2.511719 1.230469 -2.511719 C 1.414062 -2.535156 1.597656 -2.578125 1.78125 -2.691406 C 2.785156 -3.355469 3.582031 -4.152344 4.335938 -5.089844 L 4.816406 -5.660156 C 4.859375 -5.707031 4.90625 -5.707031 4.953125 -5.683594 C 5 -5.683594 5.019531 -5.660156 5.019531 -5.589844 C 5.019531 -5.476562 5.019531 -5.410156 5 -5.363281 L 4.792969 -3.742188 C 4.722656 -3.21875 4.65625 -2.714844 4.585938 -2.214844 C 4.519531 -1.710938 4.472656 -1.210938 4.40625 -0.707031 C 4.335938 -0.363281 4.246094 -0.136719 4.085938 0.113281 C 3.445312 1.09375 2.875 2.054688 2.511719 3.148438 C 2.375 3.46875 2.394531 3.8125 2.601562 4.175781 C 2.714844 4.40625 2.875 4.519531 3.082031 4.519531 Z M 3.171875 3.652344 C 3.148438 3.652344 3.125 3.652344 3.105469 3.628906 C 2.988281 3.558594 3.011719 3.402344 3.082031 3.285156 L 3.355469 2.601562 C 3.46875 2.351562 3.582031 2.121094 3.675781 1.894531 C 3.765625 2.054688 3.765625 2.238281 3.695312 2.441406 L 3.355469 3.421875 C 3.332031 3.46875 3.308594 3.515625 3.285156 3.582031 C 3.261719 3.628906 3.242188 3.652344 3.171875 3.652344 Z M 3.171875 3.652344 "/></g></g></g><g fill="#242221" fill-opacity="1"><g transform="translate(194.040878, 218.865221)"><g/></g></g><g fill="#242221" fill-opacity="1"><g transform="translate(203.715535, 218.865221)"><g><path d="M 0.113281 -1.960938 C 0.410156 -1.960938 0.796875 -2.28125 1.003906 -2.464844 C 1.574219 -2.988281 2.078125 -3.539062 2.601562 -4.152344 C 2.671875 -4.222656 2.761719 -4.3125 2.828125 -4.40625 C 2.898438 -4.496094 3.011719 -4.566406 3.171875 -4.632812 C 3.011719 -4.015625 2.875 -3.421875 2.875 -2.808594 C 2.875 -2.375 3.058594 -2.144531 3.445312 -2.144531 C 3.539062 -2.144531 3.605469 -2.144531 3.652344 -2.167969 C 4.609375 -2.328125 6.230469 -3.855469 6.890625 -4.519531 C 6.914062 -4.542969 6.960938 -4.585938 6.984375 -4.609375 C 7.007812 -4.632812 7.007812 -4.65625 7.03125 -4.679688 C 7.074219 -4.839844 7.050781 -4.953125 6.9375 -5.019531 C 6.890625 -5.066406 6.847656 -5.089844 6.777344 -5.089844 C 6.753906 -5.089844 6.734375 -5.066406 6.664062 -5.042969 C 6.59375 -5 6.527344 -4.953125 6.480469 -4.90625 C 6.414062 -4.839844 6.34375 -4.792969 6.277344 -4.722656 C 6.070312 -4.566406 5.886719 -4.40625 5.726562 -4.246094 C 5.546875 -4.085938 5.363281 -3.902344 5.15625 -3.742188 C 4.882812 -3.492188 4.585938 -3.308594 4.3125 -3.125 C 4.109375 -3.011719 3.902344 -2.921875 3.695312 -2.828125 C 3.675781 -2.808594 3.652344 -2.808594 3.605469 -2.808594 C 3.515625 -2.808594 3.46875 -2.875 3.46875 -3.011719 C 3.46875 -3.992188 4.175781 -5.660156 4.609375 -6.527344 C 4.65625 -6.640625 4.703125 -6.734375 4.769531 -6.847656 C 4.816406 -6.9375 4.859375 -7.03125 4.90625 -7.144531 C 4.976562 -7.347656 4.953125 -7.507812 4.792969 -7.601562 C 4.722656 -7.621094 4.679688 -7.644531 4.65625 -7.644531 C 4.585938 -7.644531 4.496094 -7.601562 4.382812 -7.484375 C 4.3125 -7.417969 4.269531 -7.324219 4.222656 -7.257812 C 4.152344 -7.167969 4.109375 -7.074219 4.039062 -7.007812 C 3.902344 -6.824219 3.765625 -6.640625 3.652344 -6.457031 C 3.515625 -6.277344 3.378906 -6.09375 3.242188 -5.933594 C 3.148438 -5.820312 3.082031 -5.75 3.035156 -5.75 C 3.011719 -5.75 2.945312 -5.796875 2.828125 -5.867188 C 2.601562 -6.046875 2.375 -6.140625 2.144531 -6.140625 C 1.894531 -6.140625 1.644531 -6.046875 1.390625 -5.84375 C 1.230469 -5.726562 1.117188 -5.636719 1.050781 -5.546875 C 0.363281 -4.859375 -0.386719 -3.515625 -0.386719 -2.511719 C -0.363281 -2.144531 -0.183594 -1.960938 0.113281 -1.960938 Z M 0.320312 -2.785156 C 0.320312 -2.808594 0.320312 -2.808594 0.296875 -2.808594 L 0.273438 -2.828125 C 0.457031 -3.8125 0.914062 -4.632812 1.621094 -5.25 C 1.734375 -5.363281 2.007812 -5.523438 2.167969 -5.523438 C 2.28125 -5.523438 2.375 -5.476562 2.488281 -5.410156 C 2.601562 -5.339844 2.625 -5.226562 2.578125 -5.089844 C 2.554688 -5.019531 2.511719 -5 2.488281 -4.976562 C 1.871094 -4.222656 1.253906 -3.46875 0.523438 -2.851562 C 0.480469 -2.808594 0.410156 -2.785156 0.320312 -2.785156 Z M 0.320312 -2.785156 "/></g></g></g><g fill="#242221" fill-opacity="1"><g transform="translate(210.629397, 218.865221)"><g><path d="M -0.0703125 0.386719 C 0.0703125 0.386719 0.183594 0.320312 0.25 0.207031 C 0.410156 -0.046875 0.546875 -0.25 0.660156 -0.503906 C 0.867188 -0.890625 1.050781 -1.253906 1.230469 -1.621094 C 1.390625 -1.984375 1.574219 -2.351562 1.757812 -2.714844 C 2.03125 -3.242188 2.351562 -3.742188 2.785156 -4.175781 C 2.875 -4.289062 2.96875 -4.40625 3.171875 -4.40625 C 3.242188 -4.3125 3.285156 -4.222656 3.332031 -4.132812 C 3.378906 -4.039062 3.445312 -3.949219 3.515625 -3.855469 C 3.765625 -3.515625 4.0625 -3.355469 4.449219 -3.355469 C 5.089844 -3.355469 6.046875 -4.109375 6.480469 -4.542969 C 6.550781 -4.609375 6.617188 -4.703125 6.6875 -4.839844 C 6.734375 -4.929688 6.710938 -5.019531 6.617188 -5.113281 C 6.550781 -5.15625 6.503906 -5.179688 6.4375 -5.179688 C 6.390625 -5.179688 6.367188 -5.179688 6.34375 -5.15625 C 6.230469 -5.089844 6.140625 -5.019531 6.046875 -4.929688 C 5.660156 -4.609375 4.859375 -3.949219 4.449219 -3.949219 C 4.246094 -3.949219 4.0625 -4.085938 3.902344 -4.359375 C 3.855469 -4.425781 3.8125 -4.519531 3.789062 -4.632812 C 3.742188 -4.722656 3.695312 -4.816406 3.652344 -4.882812 C 3.539062 -5.066406 3.402344 -5.15625 3.21875 -5.15625 C 3.125 -5.15625 3.035156 -5.136719 2.945312 -5.089844 C 2.238281 -4.65625 1.6875 -3.878906 1.324219 -3.171875 L 0.433594 -1.371094 L 0.410156 -1.390625 L 0.433594 -1.390625 C 0.320312 -1.644531 0.386719 -1.871094 0.457031 -2.121094 C 0.640625 -2.808594 0.890625 -3.515625 1.1875 -4.222656 C 1.390625 -4.679688 1.597656 -5.136719 1.78125 -5.589844 C 1.847656 -5.773438 1.894531 -5.933594 1.894531 -6.09375 C 1.917969 -6.207031 1.871094 -6.277344 1.734375 -6.320312 L 1.667969 -6.320312 C 1.574219 -6.320312 1.507812 -6.300781 1.460938 -6.253906 C 1.390625 -6.160156 1.347656 -6.046875 1.277344 -5.933594 C 0.480469 -4.109375 -0.160156 -2.601562 -0.457031 -0.570312 C -0.480469 -0.457031 -0.480469 -0.363281 -0.480469 -0.273438 C -0.457031 -0.160156 -0.457031 -0.0703125 -0.457031 0.0234375 C -0.433594 0.207031 -0.34375 0.320312 -0.183594 0.363281 C -0.160156 0.363281 -0.136719 0.363281 -0.136719 0.386719 C -0.113281 0.386719 -0.0898438 0.386719 -0.0703125 0.386719 Z M -0.0703125 0.386719 "/></g></g></g><g fill="#242221" fill-opacity="1"><g transform="translate(217.201012, 218.865221)"><g><path d="M 0.957031 -1.140625 C 1.164062 -1.140625 1.390625 -1.210938 1.597656 -1.324219 C 1.894531 -1.527344 2.121094 -1.78125 2.28125 -2.121094 C 2.488281 -2.554688 2.535156 -2.988281 2.441406 -3.421875 C 2.375 -3.8125 2.351562 -3.8125 2.785156 -3.878906 C 3.261719 -3.925781 3.695312 -4.039062 4.132812 -4.199219 C 4.542969 -4.359375 4.976562 -4.496094 5.410156 -4.65625 C 5.613281 -4.722656 5.660156 -4.859375 5.589844 -5.019531 C 5.523438 -5.136719 5.410156 -5.203125 5.292969 -5.203125 L 4.929688 -5.113281 C 4.722656 -5.042969 4.519531 -4.953125 4.3125 -4.882812 C 4.109375 -4.816406 3.878906 -4.722656 3.675781 -4.65625 C 3.242188 -4.519531 2.828125 -4.449219 2.394531 -4.449219 L 1.6875 -4.449219 C 1.527344 -4.425781 1.390625 -4.269531 1.460938 -4.109375 C 1.527344 -3.949219 1.597656 -3.8125 1.6875 -3.652344 C 2.03125 -3.125 1.917969 -2.648438 1.621094 -2.167969 C 1.414062 -1.804688 1.1875 -1.757812 0.820312 -1.757812 C 0.523438 -1.824219 0.363281 -2.101562 0.363281 -2.535156 C 0.363281 -2.785156 0.386719 -3.011719 0.457031 -3.195312 C 0.546875 -3.582031 0.707031 -3.972656 0.914062 -4.359375 C 1.164062 -4.746094 1.371094 -5.136719 1.894531 -5.226562 C 2.054688 -5.25 2.054688 -5.363281 2.03125 -5.523438 C 2.007812 -5.636719 1.941406 -5.726562 1.78125 -5.75 C 1.667969 -5.75 1.574219 -5.726562 1.484375 -5.683594 C 0.59375 -5.339844 -0.160156 -3.628906 -0.226562 -2.691406 C -0.25 -2.511719 -0.226562 -2.304688 -0.183594 -2.101562 C -0.0703125 -1.484375 0.410156 -1.140625 0.957031 -1.140625 Z M 0.957031 -1.140625 "/></g></g></g><g fill="#242221" fill-opacity="1"><g transform="translate(222.677439, 218.865221)"><g><path d="M 0.136719 -0.226562 C 0.25 -0.226562 0.34375 -0.273438 0.433594 -0.363281 C 0.683594 -0.570312 0.777344 -0.820312 0.9375 -1.09375 C 1.300781 -1.734375 1.667969 -2.394531 2.03125 -3.058594 C 2.328125 -3.582031 2.648438 -4.085938 3.035156 -4.542969 C 3.105469 -4.609375 3.148438 -4.703125 3.21875 -4.816406 C 3.285156 -4.90625 3.355469 -4.929688 3.445312 -4.90625 C 3.558594 -4.882812 3.628906 -4.792969 3.605469 -4.679688 C 3.582031 -4.566406 3.558594 -4.449219 3.558594 -4.359375 C 3.558594 -4.015625 3.539062 -3.675781 3.515625 -3.332031 C 3.515625 -2.96875 3.515625 -2.648438 3.675781 -2.304688 C 3.789062 -2.144531 3.902344 -2.078125 4.0625 -2.078125 C 4.085938 -2.078125 4.152344 -2.101562 4.246094 -2.121094 C 4.40625 -2.191406 4.566406 -2.304688 4.679688 -2.417969 C 4.792969 -2.535156 4.929688 -2.671875 5.042969 -2.785156 C 5.203125 -2.945312 5.386719 -3.125 5.546875 -3.285156 C 5.707031 -3.445312 5.886719 -3.605469 6.09375 -3.71875 C 6.207031 -3.652344 6.300781 -3.539062 6.34375 -3.421875 C 6.367188 -3.308594 6.4375 -3.195312 6.503906 -3.082031 C 6.753906 -2.691406 7.074219 -2.511719 7.464844 -2.511719 C 7.644531 -2.511719 7.828125 -2.535156 7.988281 -2.601562 C 8.308594 -2.761719 8.582031 -2.921875 8.808594 -3.105469 L 10.179688 -4.269531 C 10.292969 -4.359375 10.40625 -4.472656 10.5 -4.585938 C 10.65625 -4.746094 10.65625 -4.882812 10.519531 -5.019531 C 10.476562 -5.089844 10.40625 -5.136719 10.316406 -5.136719 C 10.246094 -5.136719 10.179688 -5.089844 10.066406 -5.019531 C 10.042969 -4.953125 9.996094 -4.929688 9.972656 -4.90625 C 9.496094 -4.472656 8.96875 -4.015625 8.445312 -3.582031 C 8.238281 -3.421875 7.757812 -3.105469 7.464844 -3.105469 C 7.324219 -3.105469 7.1875 -3.171875 7.074219 -3.308594 C 6.984375 -3.421875 6.914062 -3.539062 6.847656 -3.695312 C 6.824219 -3.765625 6.800781 -3.835938 6.777344 -3.902344 C 6.753906 -3.972656 6.710938 -4.039062 6.664062 -4.109375 C 6.574219 -4.3125 6.414062 -4.40625 6.207031 -4.40625 C 6.183594 -4.40625 6.09375 -4.382812 5.980469 -4.359375 C 5.84375 -4.289062 5.707031 -4.199219 5.546875 -4.085938 C 5.433594 -3.972656 5.292969 -3.835938 5.179688 -3.71875 C 5.042969 -3.605469 4.90625 -3.46875 4.792969 -3.355469 L 4.359375 -2.945312 C 4.335938 -2.945312 4.335938 -2.945312 4.3125 -2.921875 C 4.199219 -2.921875 4.132812 -2.96875 4.132812 -3.058594 C 4.132812 -3.125 4.132812 -3.21875 4.132812 -3.308594 C 4.109375 -3.402344 4.109375 -3.492188 4.109375 -3.582031 C 4.132812 -3.765625 4.132812 -3.949219 4.152344 -4.132812 C 4.175781 -4.3125 4.175781 -4.496094 4.175781 -4.703125 C 4.199219 -4.976562 4.199219 -5.25 4.085938 -5.5 C 4.015625 -5.707031 3.878906 -5.820312 3.675781 -5.820312 C 3.605469 -5.820312 3.515625 -5.796875 3.421875 -5.75 C 2.808594 -5.316406 2.304688 -4.632812 1.917969 -4.015625 C 1.710938 -3.695312 1.527344 -3.378906 1.347656 -3.058594 C 1.164062 -2.714844 0.980469 -2.394531 0.796875 -2.078125 C 0.777344 -2.054688 0.753906 -2.007812 0.730469 -1.960938 C 0.707031 -1.917969 0.683594 -1.894531 0.617188 -1.894531 C 0.570312 -1.894531 0.523438 -1.894531 0.503906 -1.917969 C 0.523438 -1.960938 0.523438 -2.007812 0.523438 -2.054688 C 0.503906 -2.101562 0.503906 -2.144531 0.523438 -2.214844 C 0.914062 -4.039062 1.4375 -5.867188 2.238281 -7.53125 C 2.28125 -7.644531 2.328125 -7.738281 2.394531 -7.851562 C 2.441406 -7.941406 2.441406 -8.054688 2.417969 -8.171875 C 2.394531 -8.238281 2.28125 -8.351562 2.214844 -8.351562 C 2.191406 -8.351562 2.144531 -8.332031 2.078125 -8.308594 C 1.574219 -8.054688 0.570312 -4.769531 0.386719 -4.175781 C 0.046875 -3.011719 -0.226562 -1.804688 -0.226562 -0.59375 C -0.226562 -0.410156 -0.136719 -0.296875 0.0234375 -0.25 C 0.046875 -0.226562 0.0898438 -0.226562 0.136719 -0.226562 Z M 0.136719 -0.226562 "/></g></g></g><g fill="#242221" fill-opacity="1"><g transform="translate(233.150682, 218.865221)"><g><path d="M 0.113281 -1.960938 C 0.410156 -1.960938 0.796875 -2.28125 1.003906 -2.464844 C 1.574219 -2.988281 2.078125 -3.539062 2.601562 -4.152344 C 2.671875 -4.222656 2.761719 -4.3125 2.828125 -4.40625 C 2.898438 -4.496094 3.011719 -4.566406 3.171875 -4.632812 C 3.011719 -4.015625 2.875 -3.421875 2.875 -2.808594 C 2.875 -2.375 3.058594 -2.144531 3.445312 -2.144531 C 3.539062 -2.144531 3.605469 -2.144531 3.652344 -2.167969 C 4.609375 -2.328125 6.230469 -3.855469 6.890625 -4.519531 C 6.914062 -4.542969 6.960938 -4.585938 6.984375 -4.609375 C 7.007812 -4.632812 7.007812 -4.65625 7.03125 -4.679688 C 7.074219 -4.839844 7.050781 -4.953125 6.9375 -5.019531 C 6.890625 -5.066406 6.847656 -5.089844 6.777344 -5.089844 C 6.753906 -5.089844 6.734375 -5.066406 6.664062 -5.042969 C 6.59375 -5 6.527344 -4.953125 6.480469 -4.90625 C 6.414062 -4.839844 6.34375 -4.792969 6.277344 -4.722656 C 6.070312 -4.566406 5.886719 -4.40625 5.726562 -4.246094 C 5.546875 -4.085938 5.363281 -3.902344 5.15625 -3.742188 C 4.882812 -3.492188 4.585938 -3.308594 4.3125 -3.125 C 4.109375 -3.011719 3.902344 -2.921875 3.695312 -2.828125 C 3.675781 -2.808594 3.652344 -2.808594 3.605469 -2.808594 C 3.515625 -2.808594 3.46875 -2.875 3.46875 -3.011719 C 3.46875 -3.992188 4.175781 -5.660156 4.609375 -6.527344 C 4.65625 -6.640625 4.703125 -6.734375 4.769531 -6.847656 C 4.816406 -6.9375 4.859375 -7.03125 4.90625 -7.144531 C 4.976562 -7.347656 4.953125 -7.507812 4.792969 -7.601562 C 4.722656 -7.621094 4.679688 -7.644531 4.65625 -7.644531 C 4.585938 -7.644531 4.496094 -7.601562 4.382812 -7.484375 C 4.3125 -7.417969 4.269531 -7.324219 4.222656 -7.257812 C 4.152344 -7.167969 4.109375 -7.074219 4.039062 -7.007812 C 3.902344 -6.824219 3.765625 -6.640625 3.652344 -6.457031 C 3.515625 -6.277344 3.378906 -6.09375 3.242188 -5.933594 C 3.148438 -5.820312 3.082031 -5.75 3.035156 -5.75 C 3.011719 -5.75 2.945312 -5.796875 2.828125 -5.867188 C 2.601562 -6.046875 2.375 -6.140625 2.144531 -6.140625 C 1.894531 -6.140625 1.644531 -6.046875 1.390625 -5.84375 C 1.230469 -5.726562 1.117188 -5.636719 1.050781 -5.546875 C 0.363281 -4.859375 -0.386719 -3.515625 -0.386719 -2.511719 C -0.363281 -2.144531 -0.183594 -1.960938 0.113281 -1.960938 Z M 0.320312 -2.785156 C 0.320312 -2.808594 0.320312 -2.808594 0.296875 -2.808594 L 0.273438 -2.828125 C 0.457031 -3.8125 0.914062 -4.632812 1.621094 -5.25 C 1.734375 -5.363281 2.007812 -5.523438 2.167969 -5.523438 C 2.28125 -5.523438 2.375 -5.476562 2.488281 -5.410156 C 2.601562 -5.339844 2.625 -5.226562 2.578125 -5.089844 C 2.554688 -5.019531 2.511719 -5 2.488281 -4.976562 C 1.871094 -4.222656 1.253906 -3.46875 0.523438 -2.851562 C 0.480469 -2.808594 0.410156 -2.785156 0.320312 -2.785156 Z M 0.320312 -2.785156 "/></g></g></g><g fill="#242221" fill-opacity="1"><g transform="translate(240.064549, 218.865221)"><g><path d="M -0.160156 1.824219 C 0.84375 1.824219 1.527344 -0.046875 1.597656 -1.003906 C 1.644531 -1.300781 1.804688 -1.550781 2.054688 -1.734375 L 3.949219 -3.082031 C 4.519531 -3.515625 5.089844 -3.902344 5.707031 -4.335938 C 5.867188 -4.449219 6.003906 -4.566406 6.070312 -4.679688 C 6.183594 -4.792969 6.160156 -4.90625 6.023438 -5.019531 C 5.980469 -5.066406 5.933594 -5.089844 5.867188 -5.089844 C 5.796875 -5.089844 5.726562 -5.066406 5.660156 -5.019531 C 5.589844 -4.953125 5.523438 -4.90625 5.453125 -4.882812 L 2.144531 -2.554688 C 2.054688 -2.488281 1.941406 -2.417969 1.804688 -2.351562 C 1.734375 -2.464844 1.6875 -2.535156 1.6875 -2.554688 C 1.621094 -3.378906 1.484375 -4.175781 1.324219 -5 C 1.300781 -5.113281 1.277344 -5.25 1.277344 -5.363281 C 1.277344 -5.476562 1.277344 -5.613281 1.300781 -5.726562 C 1.371094 -6.574219 2.101562 -7.28125 2.945312 -7.28125 C 3.011719 -7.28125 3.058594 -7.28125 3.082031 -7.304688 C 3.242188 -7.371094 3.285156 -7.554688 3.171875 -7.667969 C 2.988281 -7.851562 2.875 -7.851562 2.625 -7.851562 C 2.375 -7.851562 2.144531 -7.78125 1.917969 -7.644531 C 1.117188 -7.074219 0.640625 -6.34375 0.707031 -5.316406 C 0.730469 -5.019531 0.753906 -4.722656 0.820312 -4.425781 C 0.980469 -3.71875 1.074219 -3.082031 1.09375 -2.375 C 1.09375 -1.941406 1.027344 -1.667969 0.683594 -1.390625 C 0.136719 -1.027344 -0.777344 0.113281 -0.890625 0.730469 C -0.957031 1.117188 -0.890625 1.460938 -0.523438 1.710938 C -0.410156 1.78125 -0.273438 1.824219 -0.160156 1.824219 Z M -0.113281 1.1875 C -0.183594 1.1875 -0.207031 1.164062 -0.226562 1.117188 C -0.273438 1.074219 -0.296875 1.003906 -0.296875 0.9375 C -0.320312 0.890625 -0.320312 0.84375 -0.296875 0.777344 C -0.0703125 0.207031 0.320312 -0.273438 0.84375 -0.660156 C 0.820312 0.0703125 0.480469 0.777344 0.046875 1.117188 C 0 1.164062 -0.046875 1.1875 -0.113281 1.1875 Z M -0.113281 1.1875 "/></g></g></g></svg>